<?xml version="1.0" encoding="utf-8"?>
<svg version="1.1" x="0px" y="0px" viewBox="0 0 1024 1024" style="enable-background:new 0 0 1024 1024;" xmlns="http://www.w3.org/2000/svg">
  <style type="text/css">
	.st0{display:none;fill:#BF3B27;}
	.st1{fill:url(#SVGID_1_);}
	.st2{fill:#FFFFFF;}
	.st3{fill:#8E1B1C;}
	.st4{clip-path:url(#SVGID_3_);}
	.st5{clip-path:url(#SVGID_5_);fill:#F1F2F2;}
	.st6{fill:#FFFFFF;stroke:#000000;stroke-miterlimit:10;}
	.st7{fill:url(#SVGID_6_);}
	.st8{clip-path:url(#SVGID_8_);}
	.st9{clip-path:url(#SVGID_10_);fill:#F1F2F2;}
	.st10{fill:url(#SVGID_11_);}
	.st11{display:none;}
	.st12{display:inline;}
	.st13{clip-path:url(#SVGID_13_);}
	.st14{clip-path:url(#SVGID_17_);}
	.st15{clip-path:url(#SVGID_19_);fill:#F4DED4;}
	.st16{clip-path:url(#SVGID_21_);}
	.st17{fill:url(#SVGID_24_);}
	.st18{fill:#F1F2F2;}
	.st19{fill:none;stroke:#D1D3D4;stroke-width:0.5;stroke-miterlimit:10;}
	.st20{fill:url(#SVGID_25_);}
	.st21{clip-path:url(#SVGID_27_);}
	.st22{clip-path:url(#SVGID_31_);}
	.st23{clip-path:url(#SVGID_33_);fill:#FFFFFF;}
	.st24{clip-path:url(#SVGID_35_);}
	.st25{fill:url(#SVGID_38_);}
</style>
  <g id="Option_1">
    <rect y="-0.8" class="st0" width="1024" height="1024"/>
    <polygon class="st2" points="164.7,67 556.9,79.1 556.9,255.3 827.4,255.3 854.7,957.7 142.4,957.7 &#9;"/>
    <polygon class="st3" points="173.4,927.3 194.2,97.5 527.1,107.7 527.1,284.9 798.8,284.9 823.8,927.3 &#9;"/>
    <g>
      <defs>
        <path id="SVGID_2_" d="M354.1,361.2l-39.3-10.7c-21.7-5.9-44,7.2-49.8,29.3l-26.7,98.7c-5.8,22.1,7.1,44.8,28.8,50.8l39.3,10.7 L354.1,361.2z M438.4,346.6c28.1,0,50.8-23.2,50.8-51.8s-22.8-51.8-50.8-51.8s-50.8,23.2-50.8,51.8S410.3,346.6,438.4,346.6z M631.5,408.7l-61,373.1h40.7l61-373.1H631.5z M458.7,533.7l111.8,20.1v-41.5l-94-33.7c0,0,12.7-52.2,12.7-49.2 c0-34.3-27.3-62.2-61-62.2c-53.4,0-59.7,48.6-59.7,48.6l-80.7,311.6l0.3,0.1c-1.3,4.1-2.2,8.4-2.2,12.9 c0,22.9,18.2,41.5,40.7,41.5s40.7-18.6,40.7-41.5l33-103.6l28,103.6c0,22.9,18.2,41.5,40.7,41.5c22.4,0,40.7-18.6,40.7-41.5 c0-4.5-0.9-8.8-2.2-12.9L458.7,533.7z"/>
      </defs>
      <path d="M 354.1 361.2 L 314.8 350.5 C 293.1 344.6 270.8 357.7 265 379.8 L 238.3 478.5 C 232.5 500.6 245.4 523.3 267.1 529.3 L 306.4 540 L 354.1 361.2 Z M 438.4 346.6 C 466.5 346.6 489.2 323.4 489.2 294.8 C 489.2 266.2 466.4 243 438.4 243 C 410.4 243 387.6 266.2 387.6 294.8 C 387.6 323.4 410.3 346.6 438.4 346.6 Z M 631.5 408.7 L 570.5 781.8 L 611.2 781.8 L 672.2 408.7 L 631.5 408.7 Z M 458.7 533.7 L 570.5 553.8 L 570.5 512.3 L 476.5 478.6 C 476.5 478.6 489.2 426.4 489.2 429.4 C 489.2 395.1 461.9 367.2 428.2 367.2 C 374.8 367.2 368.5 415.8 368.5 415.8 L 287.8 727.4 L 288.1 727.5 C 286.8 731.6 285.9 735.9 285.9 740.4 C 285.9 763.3 304.1 781.9 326.6 781.9 C 349.1 781.9 367.3 763.3 367.3 740.4 L 400.3 636.8 L 428.3 740.4 C 428.3 763.3 446.5 781.9 469 781.9 C 491.4 781.9 509.7 763.3 509.7 740.4 C 509.7 735.9 508.8 731.6 507.5 727.5 L 458.7 533.7 Z" style="overflow: visible; fill-rule: evenodd; clip-rule: evenodd; fill: rgb(241, 242, 242);"/>
      <clipPath id="SVGID_3_">
        <path d="M 354.1 361.2 L 314.8 350.5 C 293.1 344.6 270.8 357.7 265 379.8 L 238.3 478.5 C 232.5 500.6 245.4 523.3 267.1 529.3 L 306.4 540 L 354.1 361.2 Z M 438.4 346.6 C 466.5 346.6 489.2 323.4 489.2 294.8 C 489.2 266.2 466.4 243 438.4 243 C 410.4 243 387.6 266.2 387.6 294.8 C 387.6 323.4 410.3 346.6 438.4 346.6 Z M 631.5 408.7 L 570.5 781.8 L 611.2 781.8 L 672.2 408.7 L 631.5 408.7 Z M 458.7 533.7 L 570.5 553.8 L 570.5 512.3 L 476.5 478.6 C 476.5 478.6 489.2 426.4 489.2 429.4 C 489.2 395.1 461.9 367.2 428.2 367.2 C 374.8 367.2 368.5 415.8 368.5 415.8 L 287.8 727.4 L 288.1 727.5 C 286.8 731.6 285.9 735.9 285.9 740.4 C 285.9 763.3 304.1 781.9 326.6 781.9 C 349.1 781.9 367.3 763.3 367.3 740.4 L 400.3 636.8 L 428.3 740.4 C 428.3 763.3 446.5 781.9 469 781.9 C 491.4 781.9 509.7 763.3 509.7 740.4 C 509.7 735.9 508.8 731.6 507.5 727.5 L 458.7 533.7 Z" style="overflow: visible;"/>
      </clipPath>
      <g class="st4">
        <defs>
          <rect id="SVGID_4_" x="-322.7" y="-2866.3" width="21225.6" height="15919.2"/>
        </defs>
        <rect x="-322.7" y="-2866.3" width="21225.6" height="15919.2" style="overflow: visible; fill: rgb(241, 242, 242);"/>
        <clipPath id="SVGID_5_">
          <rect x="-322.7" y="-2866.3" width="21225.6" height="15919.2" style="overflow: visible;"/>
        </clipPath>
        <rect x="133.3" y="139.3" class="st5" width="642.6" height="746.2"/>
      </g>
    </g>
  </g>
</svg>
